:SAMPLES-PER-SECOND 30
:FULLY-SPECIFIED
:DEGREES
296
root  -41.2007 39.5385 -0.406648 -140.807 87.2533 -136.695
RightUpLeg  3.47311 -8.57785 1.73788
RightLeg  15.8201 0.585032 1.94564
RightFoot  -15.5233 -0.167567 -1.71136
RightToes  -3.31784e-009 0 -3.6325e-017
Spine  9.29986 0.814297 14.6274
Spine1  2.72804 2.7372 -4.4281
HEad  -5.72744 -4.62073 -4.39478
LeftShoulder1  -0.619337 5.12987 -31.95
LeftArm  6.50467 16.2875 -41.7561
LeftForeArm  19.8732 -21.8514 -4.14048
LeftHand  -0.0743456 8.63707 -0.916908
RightShoulder  -0.917987 -6.2175 27.2517
RightArm  17.1535 14.5141 45.7856
RightForeArm  11.9872 31.1975 6.17079
RightHand  -0.341782 5.42443 -3.96958
LeftUpLeg  -20.0247 5.76554 4.30184
LeftLeg  19.3608 -5.5584 -1.8692
LeftFoot  -0.329945 0.667947 -6.90907
LeftToes  1.28511e-009 -3.60458e-011 6.16399e-011
297
root  -40.2129 39.4764 -0.393048 -135.381 87.4642 -130.951
RightUpLeg  5.72014 -8.64002 1.55938
RightLeg  15.3332 0.916209 1.95748
RightFoot  -16.3283 -0.206224 -2.18708
RightToes  -3.31784e-009 0 -3.6325e-017
Spine  10.0749 0.848812 13.5881
Spine1  2.12065 2.63543 -4.03572
HEad  -6.30413 -4.43967 -4.16776
LeftShoulder1  -0.468886 4.75549 -31.2316
LeftArm  8.38851 16.9901 -41.8113
LeftForeArm  20.1762 -23.5557 -4.01979
LeftHand  -0.0646116 8.30216 -0.720645
RightShoulder  -0.789213 -5.89709 26.335
RightArm  21.6081 13.832 45.942
RightForeArm  11.2543 31.4439 6.27447
RightHand  -0.291928 4.42025 -3.7196
LeftUpLeg  -18.6766 5.42387 4.46471
LeftLeg  10.4866 -4.82483 -0.805405
LeftFoot  2.0701 0.783299 -6.77086
LeftToes  1.28511e-009 -3.60458e-011 6.16399e-011
298
root  -39.2467 39.2754 -0.404745 -118.323 87.4448 -113.836
RightUpLeg  6.7014 -8.56651 2.07374
RightLeg  16.6495 1.17343 1.51094
RightFoot  -17.7165 -0.259718 -2.5235
RightToes  -3.31784e-009 0 -3.6325e-017
Spine  10.8475 0.910412 13.1786
Spine1  1.50999 2.68901 -4.09025
HEad  -6.79709 -4.36595 -3.99753
LeftShoulder1  -0.174883 3.98948 -29.9422
LeftArm  10.0037 17.9835 -41.5038
LeftForeArm  22.0421 -25.6753 -4.32623
LeftHand  -0.0585487 8.31088 -0.547702
RightShoulder  -0.610785 -5.43642 24.8605
RightArm  28.5609 12.5891 47.0379
RightForeArm  9.26341 29.9738 6.02335
RightHand  -0.396334 5.2156 -4.6481
LeftUpLeg  -18.3664 5.44604 5.07794
LeftLeg  5.86493 -3.83342 -0.352753
LeftFoot  2.94919 0.800669 -6.51304
LeftToes  1.28511e-009 -3.60458e-011 6.16399e-011
299
root  -38.3135 38.9827 -0.466647 -99.0156 87.3975 -94.5672
RightUpLeg  6.57117 -8.34233 2.49691
RightLeg  19.86 1.55404 0.765175
RightFoot  -19.6507 -0.286073 -2.10556
RightToes  -3.31784e-009 0 -3.6325e-017
Spine  12.4151 0.83942 12.7753
Spine1  0.34393 2.77772 -4.55796
HEad  -7.46981 -3.43767 -3.27586
LeftShoulder1  -0.0186102 3.55731 -29.081
LeftArm  12.2521 18.4929 -40.2537
LeftForeArm  24.6726 -27.588 -4.61123
LeftHand  -0.0817972 7.4055 -2.15913
RightShoulder  -0.4311 -4.91691 23.6085
RightArm  35.2955 10.308 48.0531
RightForeArm  9.66167 28.1208 5.5585
RightHand  -0.329858 4.59023 -4.1185
LeftUpLeg  -19.272 5.63284 5.19086
LeftLeg  6.95475 -2.70061 -0.175923
LeftFoot  2.6816 0.694424 -5.83599
LeftToes  1.28511e-009 -3.60458e-011 6.16399e-011
300
root  -37.4542 38.6453 -0.55984 -71.4046 87.4337 -67.471
RightUpLeg  4.48455 -7.86265 2.12037
RightLeg  25.8343 2.01578 0.782931
RightFoot  -21.4661 -0.211246 -0.831893
RightToes  -3.31784e-009 0 -3.6325e-017
Spine  14.3806 1.11326 11.0504
Spine1  -1.28947 2.9185 -4.05427
HEad  -8.72202 -2.31248 -2.58382
LeftShoulder1  0.0691246 3.30477 -28.5091
LeftArm  13.2363 19.0441 -38.9859
LeftForeArm  25.6652 -29.1372 -4.90821
LeftHand  -0.0723257 7.08706 -2.09996
RightShoulder  -0.351467 -4.66926 23.1309
RightArm  41.4677 7.68287 48.2268
RightForeArm  9.90818 25.9544 5.04468
RightHand  -0.227544 3.61475 -3.18724
LeftUpLeg  -21.1378 6.0106 4.77851
LeftLeg  11.2041 -2.15461 -0.310306
LeftFoot  6.05934 0.380593 -2.7473
LeftToes  1.28511e-009 -3.60458e-011 6.16399e-011
301
root  -36.6609 38.227 -0.681305 -42.2694 87.0206 -38.5311
RightUpLeg  0.473527 -7.92951 0.658898
RightLeg  36.0663 3.22594 2.37103
RightFoot  -21.633 0.106156 2.8903
RightToes  -3.31784e-009 0 -3.6325e-017
Spine  17.1235 1.23755 9.00488
Spine1  -2.34758 2.94463 -3.69868
HEad  -10.8328 -1.25947 -2.20665
LeftShoulder1  0.0694979 3.29964 -27.8364
LeftArm  11.1042 19.8149 -38.1262
LeftForeArm  26.5359 -31.1169 -5.32327
LeftHand  -0.0798529 7.23674 -2.34408
RightShoulder  -0.403003 -4.80059 24.1419
RightArm  44.3688 5.16455 47.1784
RightForeArm  8.85596 24.0077 4.69026
RightHand  -0.21016 3.56905 -2.91467
LeftUpLeg  -22.9194 5.15076 4.46774
LeftLeg  16.0192 -1.39899 -0.0905843
LeftFoot  9.53546 0.17073 -1.20453
LeftToes  1.28511e-009 -3.60458e-011 6.16399e-011
302
root  -36.0563 37.7425 -0.84512 -19.2861 86.1539 -15.6185
RightUpLeg  -6.18931 -9.50804 -1.87952
RightLeg  49.8491 4.7319 5.56932
RightFoot  -16.9429 0.264586 8.82553
RightToes  -3.31784e-009 0 -3.6325e-017
Spine  21.3885 1.40676 6.24597
Spine1  -3.93693 2.70372 -2.06138
HEad  -13.7096 -0.198306 -2.91487
LeftShoulder1  0.0976057 3.21655 -27.8884
LeftArm  8.84584 20.2999 -37.1185
LeftForeArm  26.7743 -33.3961 -5.8661
LeftHand  -0.0749278 7.36525 -1.86896
RightShoulder  -0.439822 -4.91323 24.3083
RightArm  41.6003 2.04816 46.1838
RightForeArm  8.53457 22.4813 4.62317
RightHand  -0.365784 4.01376 -4.74373
LeftUpLeg  -25.6364 5.54019 3.72427
LeftLeg  23.0125 -0.648015 0.0159431
LeftFoot  7.54759 -0.0511472 0.0314111
LeftToes  1.28511e-009 -3.60458e-011 6.16399e-011
303
root  -35.6285 37.2563 -1.00907 1.49701 85.6261 4.649
RightUpLeg  -14.2573 -11.5128 -4.71679
RightLeg  61.779 3.71982 6.93229
RightFoot  -10.1203 -0.162418 13.1537
RightToes  -3.31784e-009 0 -3.6325e-017
Spine  25.0577 1.41902 3.41607
Spine1  -4.16781 2.2486 -1.19036
HEad  -16.9824 0.39178 -3.30851
LeftShoulder1  0.160758 3.01891 -26.9624
LeftArm  6.41452 19.899 -36.9909
LeftForeArm  27.8344 -35.9759 -6.4767
LeftHand  -0.0558282 7.1883 -1.01571
RightShoulder  -0.466763 -4.99058 24.5359
RightArm  36.187 -0.71017 45.568
RightForeArm  10.9584 21.3152 4.70685
RightHand  -0.213236 3.23854 -3.0889
LeftUpLeg  -28.3337 7.52884 1.69928
LeftLeg  28.3034 -1.45026 -0.508514
LeftFoot  5.06317 -0.167638 0.955563
LeftToes  1.28511e-009 -3.60458e-011 6.16399e-011
304
root  -35.3997 36.8137 -1.18201 14.7267 84.6685 17.254
RightUpLeg  -21.8184 -13.0941 -6.37496
RightLeg  67.5099 2.78871 6.70992
RightFoot  -8.69286 -0.279445 9.38782
RightToes  -3.31784e-009 0 -3.6325e-017
Spine  29.1378 1.43584 2.04411
Spine1  -4.00782 2.18885 -1.48433
HEad  -20.8454 0.476524 -3.73907
LeftShoulder1  0.193489 2.90908 -26.3134
LeftArm  4.57067 18.0818 -36.7093
LeftForeArm  28.6064 -39.214 -7.3306
LeftHand  -0.0380264 7.06973 0.154397
RightShoulder  -0.381703 -4.71046 24.6491
RightArm  30.0312 -3.91388 45.1564
RightForeArm  11.4815 21.4498 4.55672
RightHand  -0.337585 4.16707 -4.37721
LeftUpLeg  -30.8645 10.0235 -0.213586
LeftLeg  32.3913 -2.46431 -1.31542
LeftFoot  3.00167 -0.27502 2.03285
LeftToes  1.28511e-009 -3.60458e-011 6.16399e-011
305
root  -35.2257 36.4459 -1.40807 13.1893 84.1254 14.4479
RightUpLeg  -28.8909 -13.9956 -5.85046
RightLeg  66.68 2.15437 4.87845
RightFoot  -11.2693 -0.0887596 10.0343
RightToes  -3.31784e-009 0 -3.6325e-017
Spine  33.0945 0.9791 3.46929
Spine1  -3.52076 2.48347 -2.7922
HEad  -24.9509 -0.464956 -4.43236
LeftShoulder1  0.231857 2.78138 -25.8832
LeftArm  1.53311 15.3407 -37.1677
LeftForeArm  28.5288 -42.3722 -8.31343
LeftHand  -0.0177287 6.5028 1.49145
RightShoulder  -0.450857 -4.89212 25.5655
RightArm  25.6528 -5.79501 44.0477
RightForeArm  12.4499 22.2643 4.30791
RightHand  -0.235428 3.86442 -3.23661
LeftUpLeg  -33.9165 10.8188 -0.744106
LeftLeg  35.9629 -2.45289 -1.53672
LeftFoot  1.33401 -0.295666 2.58803
LeftToes  1.28511e-009 -3.60458e-011 6.16399e-011
306
root  -35.0722 36.0735 -1.56106 14.0483 83.6974 12.9189
RightUpLeg  -36.1168 -13.7056 -4.70928
RightLeg  61.5531 1.79047 3.05411
RightFoot  -13.8413 0.0967394 8.6404
RightToes  -3.31784e-009 0 -3.6325e-017
Spine  36.1165 0.498341 4.84905
Spine1  -2.77921 2.80568 -4.0206
HEad  -28.6942 -1.87236 -4.62225
LeftShoulder1  0.356267 2.3834 -25.5758
LeftArm  -2.51194 13.1286 -37.9633
LeftForeArm  27.9045 -46.0383 -9.6238
LeftHand  -0.0194061 6.41478 2.00807
RightShoulder  -0.491781 -4.9748 26.5872
RightArm  21.9749 -6.23516 43.4179
RightForeArm  12.2703 22.0991 4.28095
RightHand  -0.214922 4.54011 -2.76245
LeftUpLeg  -38.0336 11.1566 -1.40802
LeftLeg  39.093 -2.20688 -1.53333
LeftFoot  -0.209954 -0.301195 3.10213
LeftToes  1.28511e-009 -3.60458e-011 6.16399e-011
307
root  -34.9421 35.5794 -1.63116 14.4361 83.4574 10.8953
RightUpLeg  -41.8558 -12.6242 -3.74101
RightLeg  54.6361 2.09973 2.75032
RightFoot  -15.0523 0.173026 8.70885
RightToes  -3.31784e-009 0 -3.6325e-017
Spine  39.2722 0.00316313 5.84104
Spine1  -2.07361 3.02075 -4.93403
HEad  -32.1616 -3.44597 -4.79727
LeftShoulder1  0.382654 2.28062 -25.0281
LeftArm  -6.79444 11.2587 -39.544
LeftForeArm  27.6245 -49.8974 -11.2085
LeftHand  -0.0167798 5.59172 4.12063
RightShoulder  -0.339541 -4.52757 26.0854
RightArm  17.0742 -7.01987 44.6607
RightForeArm  12.2948 22.9032 4.33201
RightHand  -0.503274 6.06614 -5.43534
LeftUpLeg  -42.5751 11.1645 -1.82284
LeftLeg  42.7657 -1.89193 -1.47354
LeftFoot  -1.73896 -0.290797 3.58522
LeftToes  1.28511e-009 -3.60458e-011 6.16399e-011
308
root  -34.8108 34.8827 -1.62211 12.448 84.0983 7.5668
RightUpLeg  -45.8062 -12.4432 -2.64365
RightLeg  51.0527 2.24963 2.60287
RightFoot  -13.3313 0.0846887 7.4594
RightToes  -3.31784e-009 0 -3.6325e-017
Spine  43.3287 -0.681222 6.69898
Spine1  -1.72002 2.78104 -4.6937
HEad  -35.5844 -4.3918 -5.2551
LeftShoulder1  0.482177 1.95666 -24.9669
LeftArm  -11.268 9.99219 -40.4648
LeftForeArm  28.9173 -54.6876 -13.5007
LeftHand  -0.0158486 5.75085 3.60236
RightShoulder  -0.206346 -4.1185 25.9019
RightArm  10.965 -7.78886 44.9201
RightForeArm  14.3313 26.1107 4.84005
RightHand  -0.675786 8.39085 -6.06951
LeftUpLeg  -46.7951 11.1108 -1.81081
LeftLeg  47.7867 -1.97878 -1.90742
LeftFoot  -3.58995 -0.257187 4.12094
LeftToes  1.28511e-009 -3.60458e-011 6.16399e-011
309
root  -34.6454 34.0042 -1.54586 10.5317 84.859 4.12323
RightUpLeg  -50.8154 -12.8714 -1.20879
RightLeg  55.2082 0.748721 0.74068
RightFoot  -10.6193 -0.0936502 0.800852
RightToes  -3.31784e-009 0 -3.6325e-017
Spine  45.8966 -1.01863 7.4673
Spine1  -0.652312 2.46415 -3.72231
HEad  -37.7764 -5.31748 -5.268
LeftShoulder1  0.644708 1.4128 -24.5702
LeftArm  -14.5071 9.05797 -41.2566
LeftForeArm  31.5048 -60.0323 -16.6973
LeftHand  -0.0106469 5.91927 3.90199
RightShoulder  -0.179617 -4.04657 25.3169
RightArm  5.57416 -8.64093 45.3761
RightForeArm  15.6996 31.4061 6.01739
RightHand  -0.609467 7.28172 -5.95986
LeftUpLeg  -51.6751 11.227 -1.8287
LeftLeg  53.5478 -2.12114 -2.59891
LeftFoot  -5.76605 -0.20046 4.81969
LeftToes  1.28511e-009 -3.60458e-011 6.16399e-011
310
root  -34.3845 32.8431 -1.35601 18.3253 86.0649 10.2346
RightUpLeg  -55.985 -12.7339 -1.55033
RightLeg  62.3865 0.310643 0.0840913
RightFoot  -13.6993 -0.0728157 1.00853
RightToes  -3.31784e-009 0 -3.6325e-017
Spine  47.9033 -1.13435 6.75228
Spine1  0.124816 1.89818 -2.34203
HEad  -39.8876 -5.99622 -5.18994
LeftShoulder1  0.636142 1.47799 -25.1987
LeftArm  -16.5603 7.28836 -41.0432
LeftForeArm  34.7983 -64.2954 -20.1978
LeftHand  -0.0390392 4.95066 4.45152
RightShoulder  -0.246053 -4.25353 25.367
RightArm  2.50884 -8.16767 44.7252
RightForeArm  15.869 37.6622 7.68893
RightHand  -0.899765 11.3824 -6.64119
LeftUpLeg  -57.1804 10.6123 -2.49264
LeftLeg  60.1266 -1.95935 -3.11123
LeftFoot  -8.48604 -0.0841352 5.51901
LeftToes  1.28511e-009 -3.60458e-011 6.16399e-011
